<?xml version="1.0" encoding="UTF-8"?>
<svg id="_Слой_1" data-name=" Слой 1" xmlns="http://www.w3.org/2000/svg" viewBox="0 0 154.39 140.34">
  <defs>
    <style>
      .cls-1 {
        fill: #fed16a;
      }

      .cls-2 {
        fill: #fce4b6;
      }
    </style>
  </defs>
  <path class="cls-1" d="m126.03,104.51c-.27-1.68-.53-3.37-.81-5.05h-.53c-.09,1.03-.3,2.04-.25,3.05.1,2.12-.39,2.63-2.85,2.37.22-.51.42-.96.68-1.56-.09-.49-1.81-.69-.55-1.77-.38-.39-1.12-1.09-1.07-1.15.9-1.08.36-2.02-.05-3.09-.12-.3.6-.92.96-1.45-.34-.13-.59-.22-.87-.33.13-.59.25-1.16.4-1.9-.36.3-.59.48-.94.76-.03-.51-.05-.87-.08-1.35-.52.49-.98.94-1.69,1.61.46-1.75-.3-2.86-1.13-4.02-.13.36-.25.72-.36,1.07l-.16-.16c-.31.29-.63.56-.96.87.2.51.44,1.16.68,1.78-.77.09-1.35.16-2.02.23-.12.69,1.13,1.73-.35,2.12.27.49.52.94.76,1.38-.63.22-1.24.44-2.17.78-.76,1.05.77,1.5,1.55,2.46-.65-.07-1-.1-1.52-.16.4.47.7.82,1.09,1.26-.99.33-1.05,1.67-2.66,1.35-1.64-.33-1.17-1.56-1.85-2.55-.23,1.2-.44,2.2-.7,3.53-.39-.53-.55-.92-.85-1.13-.78-.55-1.61-1-2.44-1.5-.2-.12-.51-.23-.53-.38-.25-1.51-1.77-2.51-1.64-4.17,0-.07-.07-.13-.18-.34-.23.79-.44,1.51-.65,2.21-.14,0-.29.01-.43.03-.21-1.16-.42-2.33-.63-3.49-.07,0-.13-.03-.2-.04-.22.77-.44,1.55-.7,2.44-.55-.27-1.19-.39-1.45-.77-.26-.38-.23-1.02-.2-1.52.16-2.08-.2-4.08-1.2-6.04-.22.98-.46,1.95-.65,2.94-.17.87-.35,1.76-.4,2.66-.03.61.16,1.24.3,2.19-.4.14-1.19.4-2.06.72,0,.05.09.23.05.39-.07.27-.21.52-.33.77-.25-.13-.68-.21-.72-.39-.26-.94-.42-1.91-.61-2.86-.18-.87-.35-1.75-.53-2.62h-.36c-.12,1.02-.23,2.04-.36,3.06-.13,1.09-.23,2.19-.42,3.28-.12.74-1.02,1.3-2.4,1.59-.29-1.91-.59-3.84-.87-5.76h-.39c-.22,1.41-.43,2.81-.66,4.22-.29,1.63-.38,1.69-2.02,1.58-.14.33-.21.76-.46,1.02-.18.18-.6.14-.91.21-.03-.26-.09-.53-.07-.79.01-.16.26-.31.23-.43-.29-1.69-.63-3.37-.89-5.07-.14-.89-.25-1.8-.21-2.68.35-7.19,3.84-12.62,9.58-16.68,2.97-2.1,6.46-3.01,10-3.57,3.95-.64,7.61-1.89,10.77-4.4.27-.21.52-.48.68-.78.53-.99,1.02-1.99,1.52-3,.25-.49.57-.95.78-1.46.78-1.89.39-3.11-1.48-3.85-4.62-1.81-8.39-4.91-12.18-7.97-.4-.33-.65-.94-.79-1.47-.23-.87-.38-1.78-.46-2.68-.07-.77-.17-1.63.09-2.32.31-.82.26-1.42-.27-2.06-1.05-1.24-2.08-2.49-3.14-3.72-.3-.35-.59-.7-1.12-1.33,1.9.09,3.46.12,5.01.25.87.07,1.37-.23,1.81-.99,1.11-1.89,3.82-4.26,5.5-4.87-.01.31-.04.6-.07,1.04,2.86-2.55,6-1.35,9.21-1.24-.59.82-1.04,1.47-1.5,2.11.07.09.12.18.18.27,3-.82,5.99-1.64,9.12-2.49-.52-.6-.82-1.09-1.68-.51-.42.27-1.17.05-1.77.05-.08-.12-.17-.25-.25-.36.72-.79,1.37-1.64,2.14-2.38,1.59-1.51,1.95-1.55,3.7-.18.69.55,1.33.74,2.17.55.65-.16,1.33-.2,2.01-.26.66-.05,1.33-.07,2.1-.27-.6-.22-1.19-.57-1.81-.66-1.89-.26-3.61-.87-5.17-1.97-.55-.38-1.07-.61-1.69-.03-.21.2-.68.13-1.03.13-2.08.04-3.95.7-5.73,1.75-.57.34-1.32.4-1.98.55-.3.07-.64.03-.95-.01-3.82-.56-6.68,1.29-9.43,3.59-.61.51-1.51.86-2.3.92-1.77.13-3.57.04-5.57.04.35.55.6.94.94,1.48-1.3.79-2.58,1.58-3.88,2.31-.17.09-.6-.09-.81-.27-3.74-3.42-7.97-6.15-12.31-8.71-1.25-.74-1.84-1.68-2.06-3.07-.72-4.35-1.85-8.59-3.76-12.59-.14-.29-.27-.57-.43-.85-.94-1.67-2.1-1.95-3.42-.61-2.23,2.24-4.31,4.64-6.45,6.95-.18.2-.33.43-.53.69-6.09-3.05-11.47-7.02-16.73-11.6,15.38-5.8,30.8-6.5,46.57-3.1-.07.87-.49,1.29-1.3,1.42-1.51.23-2.62.96-3.58,2.25-.66.9-2.02,1.25-3.02,1.93-.55.36-1.19.81-1.43,1.37-.42.94-1.08,1.41-1.94,1.78-.91.39-1.77.86-1.88,2.07.83-1.26,2.15-1.46,3.44-1.52,1.19-.05,1.86-.61,2.36-1.64.55-1.12,1.3-2.1,2.66-2.49.08.22.16.44.31.89,1.43-2.34,3.78-2.16,5.98-2.59.08.48.13.89.26,1.69,1.21-1.2,2.17-2.2,3.2-3.15.26-.23.77-.44,1.07-.35,7.25,2.33,14.04,5.63,20.25,10.07.07.04.09.13.14.2-.39,1.68-1.33,2.88-3.07,3.23-1.04.21-1.76.72-2.33,1.63-.59.95-1.34,1.8-1.84,2.83.42-.16.89-.25,1.25-.48.46-.3.96-.64,1.21-1.09.57-1.04,1.04-1.63,2.54-1.51.94.08,2.03-1.15,2.98-1.86.48-.36.82-.94,1.22-1.39,2.14,1.08,2.41,1.52,1.48,3.11,1.78-1.55,2.51-.1,3.39.66,5.18,4.61,9.79,9.7,13.5,15.59.1.16.18.33.35.63-.81.29-1.51.63-2.27.81-1.25.33-2.4.77-3.29,1.77-.22.25-.78.35-1.16.3-1.34-.14-2.68-.3-4-.61-1.38-.33-2.49.08-3.52.94-.34.27-.73.49-1.02.82-1.13,1.29-2.5,1.89-4.25,1.99-1.48.09-2.73.92-3.59,1.89,1.69-.12,3.48-.33,5.26-.33,1.16,0,2.11-.23,2.79-1.21,1.05-1.52,2.47-1.91,4.26-1.6,1.2.22,2.45.23,3.67.33.95.08,1.54.52,1.72,1.69-.48.05-1.03.3-1.34.12-.91-.49-1.3-.07-1.77.9h10.85c-.16-.96-.61-1.16-1.42-.94-.42.12-.89.08-1.33.07-.03,0-.1-.57-.04-.6.52-.25,1.22-.73,1.58-.56,1.52.76,3.16,1.12,3.97,3.14,2.04,5.13,3.93,10.27,4.94,15.73.08.42.12.85.17,1.24-1.63.72-3.4.33-5.31-1.17.38-.42.76-.83,1.13-1.26-1.59.21-3.11.39-3.91,2.01-.73,1.48-1.95,2.31-3.61,2.59-.44.08-.83.52-1.21.85-.35.3-.6.77-.99.98-1.04.53-2.14.9-2.7,2.11-.18.38-.96.44-1.42.74-.68.43-1.3.94-1.84,1.6.99-1.07,2.29-1.05,3.53-1,1.08.05,1.68-.36,2.15-1.28.74-1.43,2.01-2.28,3.57-2.94.08.34.12.56.23,1.08,1.8-2.11,3.71-3.59,6.28-1.3-.13.23-.31.55-.44.76,1.61-.29,3.26-.59,5.17-.94.17,2.83.38,5.39.44,7.94.13,5.42-.42,10.77-1.61,16.06-.22.95-.65,1.48-1.71,1.65.47-3.33.92-6.63,1.39-9.94h-.1c-1,3.59-1.89,7.24-3.06,10.78-1.16,3.53-2.59,6.95-4.01,10.72-1.26-.77-2.23-1.35-3.28-1.99.38-.57.61-.92.85-1.28.05.12.1.22.16.34,1.05-.27,2.1-.55,3.42-.89-1.75-.78-3.52-1.25-4.79-2.77.43-.18.72-.31,1.02-.43-.36-.57-.7-1.12-1.05-1.68.92-.23,1.69-.43,2.47-.63.01-.1.04-.2.05-.3-1.6-.95-3.69-1.33-4.39-3.48.76.13,1.42.23,2.08.35.1-.14.21-.29.31-.42-.73-.4-1.47-.81-2.2-1.21.14-.17.29-.33.43-.49l1-.13c.08-.09.14-.18.22-.27l-2.01-1.58c.08-.1.14-.2.22-.3.43.08.85.14,1.63.29-.94-1.38-1.72-2.51-2.5-3.66.17.03.48.05.95.1-.43-.85-.82-1.61-1.28-2.53.57.22.98.39,1.48.6-1-2.06-1.94-3.95-2.81-5.73-.35,1.02-.79,2.23-1.17,3.46-.38,1.26-.52,2.66-2.01,3.5.66.29,1.15.51,1.76.77-.47,1.17-2.24,1.67-1.82,3.36.33.04.7.09,1.41.18-.77,1.32-1.47,2.49-2.17,3.67.55.14,1.13.3,1.73.46-.16,1.65-1.38,2.62-4.06,3.13.64,1.28,1.41,1.51,2.98.91-.46,1.5-.77,1.65-3.62,1.95.07.4.13.81.2,1.28.27.03.61.04.98.07.05.48.09.91.16,1.58.6-.49,1.08-.9,1.69-1.41v1.32c.56-.16,1.04-.29,1.78-.49-1.05,1.54-2.28,2.45-3.96,2.72.79,1.42.34,2.81-1.09,3.29-.18.07-.69-.3-.76-.53-.3-1-.49-2.04-1-3.11-.16.79-.25,1.61-.48,2.4-.14.48-.39,1.09-.77,1.29-.31.16-.89-.21-1.35-.34.12-.12.23-.22.35-.34v.05Z"/>
  <path class="cls-1" d="m78.42,27.11c-.57-.03-1.16-.07-1.97-.1,1.15,1.32,2.58,1.73,3.92,2.27,1.39.55,2.81,1,4.21,1.77h-6.49c-.04.16-.08.31-.12.48l10.26,4.38v.21c-1.98.12-3.96.22-5.94.34-.01.07-.04.14-.05.21,3.06,1.69,6.12,3.4,9.17,5.09-.05.14-.1.3-.16.44h-4.62c2.8,2.17,5.33,4.13,8.1,6.29-.72.14-1.04.21-1.47.3,1.65,2.54,4.68,3.09,6.78,4.95-.87-.21-1.73-.43-2.6-.64,3.53,2.64,8.17,2.49,11.95,4.86-.64.14-1.21.27-1.78.42-.39.09-.77.2-1.15.3-2.75.74-3.14,1.78-1.48,4.18-.91.26-1.81.51-2.7.76,0,.07.03.13.03.2h3.89c.03.12.07.25.09.36-1.15.4-2.28.81-3.42,1.21,0,.04.01.07.03.1,1.29-.07,2.57-.14,3.93-.21-1.71,2.49-12.79,2.21-16.29-.03,1.35-.23,2.59-.46,3.83-.68,0-.17-.01-.33-.03-.49-2.44,0-4.87.04-7.32-.01-.99-.03-1.97-.26-2.94-.63,1.34-1.3,3.02-1.22,4.65-1.78-1.85-.33-3.7-.65-5.74-1,2.41-1.39,4.94-.95,7.37-1.05,0-.13.01-.26.03-.38-3-.22-5.98-.43-8.97-.65l-.09.4c.33.3.64.6,1.09,1.03-.87.36-1.6.78-2.4.95-.78.16-1.08.52-1.33,1.25-.4,1.17-1,2.28-1.51,3.39,1.42-.76,2.92-1.55,4.52-2.4v2.7c-4.82,1.48-10.12,2.08-15.73,2.89,1.37.61,2.47.9,3.63.68,3.97-.76,7.93-1.56,11.89-2.36,1.17-.23,2.32-.6,3.49-.7.95-.09,1.95.03,2.89.22,1.26.26,2.49.68,3.71,1.22-1.84.4-3.67.76-5.48,1.22-5.07,1.29-9.9,3.07-14.18,6.2-.96.7-2.2,1.03-3.31,1.52l-.22-.25c1.43-1.73,2.88-3.45,4.54-5.46-5.78,1.97-11.06,4.28-16.42,7.16.83-2.41,2.66-3.84,3.85-5.66-.08-.1-.16-.21-.23-.31-2.81,1.84-5.64,3.66-8.66,5.64,1.21-2.06,2.34-3.97,3.46-5.87-4.44,1.99-7.34,5.78-10.74,8.96l-.29-.14c.44-1.13.83-2.29,1.34-3.39.52-1.11,1.13-2.19,1.75-3.24.64-1.08,1.33-2.11,1.99-3.16-.09-.12-.18-.22-.27-.34-1.81,1.32-3.63,2.63-5.73,4.15.82-1.81,1.52-3.36,2.23-4.91-.08-.08-.17-.16-.25-.22-2.11,1.63-4.22,3.27-6.29,4.87-.13-1.11.47-3.78,1.67-6.04.99-1.88,2.24-3.61,3.27-5.65-2.04.95-4.1,1.9-6.15,2.85-.07-.05-.13-.1-.2-.16,1.95-2.33,3.91-4.66,5.96-7.12-2.75.17-5.01,1.29-7.41,2.37.95-1.2,1.91-2.38,2.86-3.58-.04-.09-.08-.17-.1-.26-1.88.44-3.76.9-5.64,1.34,3.53-3.02,7.98-4.25,12.05-6.39h-6.34c-.05-.13-.1-.26-.17-.39,2.46-1.78,4.92-3.57,7.66-5.56h-10.63c-.03-.09-.05-.18-.08-.29,2.5-.99,5.01-1.97,7.75-3.05-4.3-.86-8.39,1.32-12.38-.1,2.59-.51,5.22-1,7.85-1.54.86-.17,1.68-.48,2.54-.6.64-.09,1.42-.18,1.95.08,1.55.76,3.06.44,4.9.09-1.75-.55-3.26-1.03-4.75-1.5,0-.12.01-.22.03-.34h9.49c.01-.1.03-.21.04-.31-.6-.39-1.2-.79-2.04-1.35h6.94c-1.02,1.75-1.91,3.28-3,5.13,3.31-1.29,6.41-2.21,8.97-4.79-.7.14-1.16.23-1.82.36,1.17-1.9,2.29-3.66,2.16-5.83-1.2,1.19-2.38,2.38-3.58,3.57-.12-.08-.23-.14-.35-.22-.12-3.03-.25-6.08-.36-9.12h-.42c-.2.48-.39.98-.66,1.65-.92-1.5-1.71-2.94-2.66-4.26-3.26-4.49-6.65-8.88-9.81-13.44-1.89-2.72-3.42-5.69-5.09-8.57-.25-.43-.34-.94-.27-1.59.51.51,1.05.98,1.51,1.52,4.22,4.91,8.63,9.61,13.88,13.45,1.65,1.21,2.54,3.01,3.4,4.81.12.25.22.48.56.7v-3.35c3.41,2.79,3.32,6.63,4.18,10.43.68-1.46,1.25-2.68,1.98-4.23.77,1.68,1.61,3.07,2.06,4.58.43,1.47.47,3.07.69,4.75,1.12-2.25,2.41-4.4,1.24-7.02-1-2.23-2.04-4.44-2.88-6.9,3.71,2.7,7.42,5.39,11.12,8.09-.03.1-.07.21-.09.3l-.08-.03Zm-4.87,38.56c-.85-1.45-3.28-1.89-2.11-4.13-1.21-.46-2.34-.9-3.74-1.42,1.95-.9,3.57-1.64,5.22-2.41-2.08-.22-4-.42-5.93-.61-.08,0-.17,0-.23.04-1.71.86-3.4.21-5.09-.08-.1-.01-.2-.1-.36-.2.29-.13.51-.23.73-.33-3.54-.34-7.05-.64-10.54.55.66.23,1.32.48,1.97.72-1.95,1.2-3.84,2.37-5.73,3.53.05.09.12.2.17.29,1.69-.12,3.39-.25,5.33-.38-.87,1.11-1.59,1.98-2.4,3.01,2.38-.79,4.57-1.52,6.76-2.24.05.12.1.23.16.35-.35.61-.7,1.22-1.05,1.85.04.1.08.2.12.3,3.84-2.86,7.77-2.07,11.9-.66-.52.48-.91.85-1.41,1.3,2.16.2,4.12.36,6.26.55l-.03-.03Zm4.23-11.73c.59,1.47,1.55,1.09,2.5.74.18-.07.36-.18.56-.21,1.13-.17,2.27-.31,3.72-.51-.49.83-.77,1.28-1.12,1.86.7-.1,1.26-.29,1.8-.25,1.29.09,2.57.25,3.83.46.38.07.72.6,1.05.59,1.26-.07,2.53-.26,4.13-.46-1.38-.49-2.77-.36-3.15-1.84-.03-.1-.34-.21-.52-.21-1.86,0-3.52-.44-4.61-2.11-.07-.09-.2-.13-.29-.2-1.2-.87-1.98-1.94-2.06-3.53-.13-2.36-1.75-4.14-3.96-4.32-1.03-.09-2.12.17-3.13.48-2.53.81-4.99,1.8-7.51,2.59-1.24.39-2.57.53-3.84.78,0,.08-.01.16-.03.22,1.24.25,2.47.48,3.96.78-.77.35-1.28.6-2.11.98,1.16.13,1.99.23,2.93.34-.31.43-.55.74-.73,1,.63.17,1.19.33,1.93.53.2-.12.59-.4,1-.61.66-.33,1.39-.94,2.02-.83,1.5.23,2.94.79,4.41,1.22.04.1.09.21.13.31-.43.26-.85.51-1.43.86.66.27.99.42,1.42.59-.38.31-.65.55-.87.74h-.04Zm-17.57-8.53c-.25-.1-.33-.17-.38-.16-2.62.44-4.94,2.27-7.77,1.73-1.6.92-3.19,1.85-4.79,2.76,1.67.08,3.23-.25,4.7,0,.98.16,1.63.01,2.36-.47.72-.48,1.5-.89,2.23-1.35,1.2-.79,2.38-1.63,3.67-2.5h-.01Z"/>
  <path class="cls-1" d="m21.06,44.51c1.72-.51,3.44-1.03,5.16-1.54.07.09.13.2.2.29-4.35,4.57-6.78,10.33-10.12,15.73.53-.3.92-.51,1.3-.72.08.07.16.13.23.2-1.35,2.57-2.71,5.12-4.22,7.97-1.07-2.04-2.67-1.52-4.19-1.46-.38.01-.78-.26-1.17-.42-1.28-.49-2.57-.94-3.8-1.48-1.28-.56-2.4-.23-3.7.77.08-.78.09-1.2.16-1.6.87-4.97,2.16-9.82,4.08-14.51.31-.77.77-1.22,1.64-1.3,1.25-.12,1.45.03,1.37,1.34.64.23,1.29.48,2.03.77-.09-.42-.16-.77-.23-1.12,2.19-.53,2.7-.31,3.84,1.38.26.39.82.66,1.3.78.74.18,1.54.17,2.59.01-.25-.1-.48-.2-.72-.31-1.52-.77-2.97-1.59-4.13-2.92-.42-.47-1.33-.6-2.04-.69-.9-.12-1.64-.33-2.27-1.07-.35-.42-1.05-.52-1.76-.85,6.16-12.7,15.26-22.97,27.17-30.89-.2,3.97-.63,7.83-.51,11.66.12,3.82.76,7.63,1.2,11.62-4.78,1.93-9.25,4.87-13.39,8.33v.03Z"/>
  <path class="cls-1" d="m8.43,76.21c1.08-.69,2.15-1.39,3.41-2.2-.78,8.5-1.13,16.86-3.92,25.22-2.62-6.26-3.93-12.55-5.72-18.74.42,3.2.85,6.39,1.28,9.7-.96-.36-1.65-.77-1.88-1.88-1.34-6.49-1.89-13.01-1.46-19.61,0-.16.01-.31.03-.47.13-2.45.69-3.2,3-3.96.22-.08.59-.04.74.12.65.6,1.24,1.28,1.85,1.91-.05.12-.1.23-.16.34h-2.08c0,.09,0,.18-.01.29,1.8.59,3.59,1.17,5.66,1.85-.39-.7-.63-1.12-.96-1.75,1.73-.08,3.24-.14,4.75-.21.05.13.09.27.14.4-1.64,2.94-3.28,5.87-4.92,8.82.08.07.16.13.23.18v-.03Z"/>
  <path class="cls-2" d="m25.8,130.6c.12,1.37.2,2.45.31,3.79-.68-.22-1.17-.38-1.65-.52.09.07.2.13.29.2-.47.56-.92,1.11-1.39,1.67-.18-.13-.36-.26-.53-.39.55.79,1.09,1.59,1.63,2.38-.04.1-.09.21-.13.31-2.47-.47-4.96-.82-7.4-1.45-.99-.25-1.72-.2-2.49.38-.38.29-.81.49-1.32.63,1.19-1.48,1.73-3.59,4.04-3.98.04,0,.08-.03.12-.03,2.84-.35,5.08-1.56,6.32-4.3.6-1.32,1.6-1.61,3.01-1.25,3.95,1.03,7.92,1.95,11.88,2.93.26.07.52.21.72.39,1.63,1.55,3.24,3.11,4.94,4.73-3.14.59-6-.63-8.95-1.2-.07.1-.12.22-.18.33.76.59,1.52,1.16,2.37,1.81-1.48.29-2.66.21-3.92-.85-2.36-1.97-4.95-3.65-7.64-5.6v.03Z"/>
  <path class="cls-1" d="m119.85,134.98c-1.03-1.05-2.02-.94-2.94-.3-1.82,1.24-3.88,1.45-6.12,1.21,2.08-.94,4.13-2.49,6.26-2.62,1.89-.12,2.62-1,3.28-2.16,1.43-2.53,4.15-2.88,6.37-4.06.25-.13.76.09,1.09.23,1.95.87,3.89,1.77,5.85,2.66,1.75.78,1.91,2.68,3.03,3.91-.08.09-.16.2-.23.29-.6-.31-1.32-.51-1.78-.95-.66-.63-1.22-.48-1.91-.17-1.15.52-2.32.98-3.61,1.52-.07-.95-.13-1.85-.2-2.9-1.2.48-2.46.91-3.63,1.5-.95.48-1.59.42-2.14-.53-.22-.4-.56-.76-.91-1.22-.81,1.2-1.56,2.33-2.41,3.61h0Z"/>
  <path class="cls-2" d="m54.01,34.16c-4.49-1.76-7.25-5.18-9.75-9.22.4.12.61.17.77.22-.65-2.46-1.32-4.94-1.97-7.41.13-.05.25-.12.38-.17.48.7.95,1.41,1.64,2.42v-5.93c.08-.01.17-.03.25-.04.08.16.18.3.22.47.59,2.83,1.16,5.65,1.77,8.48.1.48.29,1.02.6,1.38,1.46,1.72,2.85,3.53,4.52,5.01,1.54,1.37,1.54,2.97,1.56,4.79h.01Z"/>
  <path class="cls-2" d="m62.03,115.95c-1.57-3.09-3.2-6.16-3.69-9.98-.4-3.18-.03-6.19,1.39-9.04.13,1.99.16,3.85.41,5.65.22,1.52.72,2.98,1.06,4.48.18.78.33,1.59.41,2.4.24,2.14.45,4.27.67,6.41-.09.03-.18.05-.27.07h0Z"/>
  <path class="cls-2" d="m78.5,83.97c-2.97,6.81-2.04,14.29-3.63,21.31-.82-1.05-2.1-5.35-2.01-6.84.26-4.14,2.94-11.15,5.64-14.47Z"/>
  <path class="cls-1" d="m31.49,75.97c-1.95,6.58-3.82,13.1-.82,20.08-.39-.29-.63-.39-.76-.57-1.24-1.69-2.47-3.39-3.67-5.12-.21-.3-.31-.76-.26-1.12.68-4.77,2.06-9.27,5.17-13.09.07-.08.18-.1.33-.2h.01Z"/>
  <path class="cls-2" d="m68.19,88.75c-.07.51-.09,1.02-.18,1.52-.64,3.82.09,7.46,1.71,10.86,1.04,2.19.94,4.26.36,6.45-.16.61-.33,1.22-.52,1.98-1.17-2.8-2.31-5.48-3.54-8.44.46.36.73.59.99.79h.34c-1.22-4.52-1.75-8.99.83-13.18h.01Z"/>
  <path class="cls-2" d="m91.88,137.81c2.28-.94,4.57-1.86,6.85-2.81.39-.17.77-.4,1.11-.65,1.59-1.19,3.14-2.41,4.75-3.57.31-.23.81-.34,1.21-.33,1.26.03,2.53.13,3.79.21.2,0,.47.1.57,0,1.65-1.37,3.13-.2,4.64.31.18.07.35.13.53.4-2.41.43-4.82,1.07-7.24,1.21-1.88.12-3.48.63-5.04,1.52-1.03.59-2.04,1.21-3.11,1.73-.59.3-1.16,1.11-1.95.21-.1-.12-.72.2-1.08.34-1.61.63-3.22,1.28-4.83,1.9-.08-.17-.14-.33-.22-.49h.03Z"/>
  <path class="cls-2" d="m27.86,69.53c-.52,1.38-1.03,2.57-1.42,3.8-.42,1.35-.72,2.75-1.07,4.13-.07.23-.08.48-.2.68-2.15,3.39-2.11,7.23-2.37,11.02-.03.47,0,.95,0,1.58-2.71-6.21-.81-16,5.05-21.19h0Z"/>
  <path class="cls-2" d="m43.65,103.59c.66-.77,1.34-1.52,1.99-2.3,2.12-2.6,3.29-5.64,4.08-8.88.68-2.76,1.58-5.46,2.37-8.19.12.01.23.04.36.05,0,1.22.2,2.49-.04,3.66-.73,3.61-1.61,7.19-2.49,10.76-.12.47-.38,1.02-.76,1.3-1.73,1.33-3.53,2.58-5.31,3.85l-.2-.26h-.01Z"/>
  <path class="cls-1" d="m24.89,60.83c-4.38,3.66-8.75,7.32-13.2,11.06,3.39-4.95,6.32-10.26,13.2-11.06Z"/>
  <path class="cls-1" d="m36.58,10.01c.31,6.88-.35,13.83,1.94,20.55-.13.05-.27.1-.4.14-.51-1.11-1.09-2.19-1.52-3.33-1.54-4.08-1.09-8.27-.66-12.45.17-1.64.43-3.28.64-4.92h.01Z"/>
  <path class="cls-1" d="m13.97,91.65c-1.19-5.72,1.39-10.44,4-15.16-.49,5.27-3.05,10-4,15.16Z"/>
  <path class="cls-2" d="m58.04,137.44c2.32,0,4.65-.05,6.97.03.64.03,1.25.47,1.89.63,1.72.43,3.46.79,5.18,1.22.31.08.59.35.87.53-.3.14-.64.46-.91.4-2.85-.42-5.69-.87-8.53-1.37-1.85-.33-3.69-.73-5.53-1.11.01-.12.03-.23.05-.35h.01Z"/>
  <path class="cls-1" d="m75.84,13.7c.9,3.27,1.8,6.54,2.73,9.92-2.8-1.13-3.78-2.59-3.56-5.31.12-1.55.38-3.07.57-4.61h.25Z"/>
  <path class="cls-2" d="m50.81,112.98c3.02,4.64,1.59,8.7-2.42,11.43,2.31-3.62,2.21-7.42,2.42-11.43Z"/>
  <path class="cls-2" d="m57.79,118.64c-.47-.83-1-1.81-1.54-2.77-.12-.21-.23-.42-.3-.64-.57-2.24-1.13-4.49-1.67-6.59,3,1.91,4.88,7.44,3.5,10Z"/>
  <path class="cls-2" d="m30.56,48.97c-4.04.85-6.92,3.27-10.03,5.43.92-1.67,4.88-5.83,6.24-6.56.25-.13.63-.18.89-.09.89.33,1.73.72,2.89,1.21h.01Z"/>
  <path class="cls-2" d="m89.09,138.25c-4.21.7-8.43,1.39-12.63,2.1-.21-.95.08-1.19.78-1.3,2.84-.49,5.65-1.15,8.49-1.55,1.08-.16,2.23.17,3.33.27,0,.17.01.33.03.49h0Z"/>
  <path class="cls-2" d="m105.78,60.53c2.03-.46,4.05-1,6.11-1.3.63-.09,1.34.51,1.95,1.02-2.68,1.19-5.37.99-8.05.65,0-.12-.01-.25-.03-.36h.01Z"/>
  <path class="cls-2" d="m78.88,90.57v9.44c-1.99-2.75-1.84-6.69,0-9.44Z"/>
  <path class="cls-1" d="m1.98,90.91h1.72c.09,1,.18,2.02.29,3.24-.51-.25-.81-.39-1.25-.61,1.54-1.25.12-1.75-.76-2.62h0Z"/>
  <path class="cls-1" d="m150.64,94.08c-.09-2.79.02-3.27.79-3.09-.17.34-.33.53-.4.83-.09.33-.19.95-.13,1.11.39.91.02.9-.26,1.15Z"/>
  <path class="cls-2" d="m81.86,47.65c.99.26.9.99.78,1.61-.16.78-.64,1.43-1.52,1.39-1.04-.04-2.07-.25-3.1-.38,0-.17.03-.33.03-.49.38.04.76.07,1.15.12.65.08,1.32.34,1.93.23,1.03-.17,1.26-.92.74-1.89-.08-.13,0-.35,0-.6Z"/>
  <path class="cls-2" d="m77.56,49.3v-2.19c.69-.13,1.47-.29,2.27-.44-.57.43-1.59.31-1.26,1.54.22.03.49.07.77.09.01.08.04.16.05.25-.56.23-1.11.47-1.82.77h0Z"/>
</svg>