<?xml version="1.0" encoding="UTF-8"?>
<svg id="_Слой_1" data-name=" Слой 1" xmlns="http://www.w3.org/2000/svg" viewBox="0 0 316.77 110.06">
  <defs>
    <style>
      .cls-1 {
        fill: #fed16a;
      }

      .cls-2 {
        fill: #fce4b6;
      }
    </style>
  </defs>
  <g>
    <path class="cls-1" d="m96.78,80.25c-.21-1.29-.41-2.59-.62-3.88h-.41c-.07.79-.23,1.57-.19,2.34.08,1.63-.3,2.02-2.19,1.82.17-.39.32-.74.52-1.2-.07-.38-1.39-.53-.42-1.36-.29-.3-.86-.84-.82-.88.69-.83.28-1.55-.04-2.37-.09-.23.46-.71.74-1.11-.26-.1-.45-.17-.67-.25.1-.45.19-.89.31-1.46-.28.23-.45.37-.72.58-.02-.39-.04-.67-.06-1.04-.4.38-.75.72-1.3,1.24.35-1.34-.23-2.2-.87-3.09-.1.28-.19.55-.28.82l-.12-.12c-.24.22-.48.43-.74.67.15.39.34.89.52,1.37-.59.07-1.04.12-1.55.18-.09.53.87,1.33-.27,1.63.21.38.4.72.58,1.06-.48.17-.95.34-1.67.6-.58.81.59,1.15,1.19,1.89-.5-.05-.77-.08-1.17-.12.31.36.54.63.84.97-.76.25-.81,1.28-2.04,1.04-1.26-.25-.9-1.2-1.42-1.96-.18.92-.34,1.69-.54,2.71-.3-.41-.42-.71-.65-.87-.6-.42-1.24-.77-1.87-1.15-.15-.09-.39-.18-.41-.29-.19-1.16-1.36-1.93-1.26-3.2,0-.05-.05-.1-.14-.26-.18.61-.34,1.16-.5,1.7-.11,0-.22.01-.33.02-.16-.89-.32-1.79-.48-2.68-.05,0-.1-.02-.15-.03-.17.59-.34,1.19-.54,1.87-.42-.21-.91-.3-1.11-.59-.2-.29-.18-.78-.15-1.17.12-1.6-.15-3.13-.92-4.64-.17.75-.35,1.5-.5,2.26-.13.67-.27,1.35-.31,2.04-.02.47.12.95.23,1.68-.31.11-.91.31-1.58.55,0,.04.07.18.04.3-.05.21-.16.4-.25.59-.19-.1-.52-.16-.55-.3-.2-.72-.32-1.47-.47-2.2-.14-.67-.27-1.34-.41-2.01h-.28c-.09.78-.18,1.57-.28,2.35-.1.84-.18,1.68-.32,2.52-.09.57-.78,1-1.84,1.22-.22-1.47-.45-2.95-.67-4.42h-.3c-.17,1.08-.33,2.16-.51,3.24-.22,1.25-.29,1.3-1.55,1.21-.11.25-.16.58-.35.78-.14.14-.46.11-.7.16-.02-.2-.07-.41-.05-.61.01-.12.2-.24.18-.33-.22-1.3-.48-2.59-.68-3.89-.11-.68-.19-1.38-.16-2.06.27-5.52,2.95-9.69,7.36-12.81,2.28-1.61,4.96-2.31,7.68-2.74,3.03-.49,5.84-1.45,8.27-3.38.21-.16.4-.37.52-.6.41-.76.78-1.53,1.17-2.3.19-.38.44-.73.6-1.12.6-1.45.3-2.39-1.14-2.96-3.55-1.39-6.44-3.77-9.35-6.12-.31-.25-.5-.72-.61-1.13-.18-.67-.29-1.37-.35-2.06-.05-.59-.13-1.25.07-1.78.24-.63.2-1.09-.21-1.58-.81-.95-1.6-1.91-2.41-2.86-.23-.27-.45-.54-.86-1.02,1.46.07,2.66.09,3.85.19.67.05,1.05-.18,1.39-.76.85-1.45,2.93-3.27,4.22-3.74-.01.24-.03.46-.05.8,2.2-1.96,4.61-1.04,7.07-.95-.45.63-.8,1.13-1.15,1.62.05.07.09.14.14.21,2.3-.63,4.6-1.26,7-1.91-.4-.46-.63-.84-1.29-.39-.32.21-.9.04-1.36.04-.06-.09-.13-.19-.19-.28.55-.61,1.05-1.26,1.64-1.83,1.22-1.16,1.5-1.19,2.84-.14.53.42,1.02.57,1.67.42.5-.12,1.02-.15,1.54-.2.51-.04,1.02-.05,1.61-.21-.46-.17-.91-.44-1.39-.51-1.45-.2-2.77-.67-3.97-1.51-.42-.29-.82-.47-1.3-.02-.16.15-.52.1-.79.1-1.6.03-3.03.54-4.4,1.34-.44.26-1.01.31-1.52.42-.23.05-.49.02-.73-.01-2.93-.43-5.13.99-7.24,2.76-.47.39-1.16.66-1.77.71-1.36.1-2.74.03-4.28.03.27.42.46.72.72,1.14-1,.61-1.98,1.21-2.98,1.77-.13.07-.46-.07-.62-.21-2.87-2.63-6.12-4.72-9.45-6.69-.96-.57-1.41-1.29-1.58-2.36-.55-3.34-1.42-6.6-2.89-9.67-.11-.22-.21-.44-.33-.65-.72-1.28-1.61-1.5-2.63-.47-1.71,1.72-3.31,3.56-4.95,5.34-.14.15-.25.33-.41.53-4.68-2.34-8.81-5.39-12.85-8.91C49.67,1.21,61.51.67,73.62,3.28c-.05.67-.38.99-1,1.09-1.16.18-2.01.74-2.75,1.73-.51.69-1.55.96-2.32,1.48-.42.28-.91.62-1.1,1.05-.32.72-.83,1.08-1.49,1.37-.7.3-1.36.66-1.44,1.59.64-.97,1.65-1.12,2.64-1.17.91-.04,1.43-.47,1.81-1.26.42-.86,1-1.61,2.04-1.91.06.17.12.34.24.68,1.1-1.8,2.9-1.66,4.59-1.99.06.37.1.68.2,1.3.93-.92,1.67-1.69,2.46-2.42.2-.18.59-.34.82-.27,5.57,1.79,10.78,4.32,15.55,7.73.05.03.07.1.11.15-.3,1.29-1.02,2.21-2.36,2.48-.8.16-1.35.55-1.79,1.25-.45.73-1.03,1.38-1.41,2.17.32-.12.68-.19.96-.37.35-.23.74-.49.93-.84.44-.8.8-1.25,1.95-1.16.72.06,1.56-.88,2.29-1.43.37-.28.63-.72.94-1.07,1.64.83,1.85,1.17,1.14,2.39,1.37-1.19,1.93-.08,2.6.51,3.98,3.54,7.52,7.45,10.37,11.97.08.12.14.25.27.48-.62.22-1.16.48-1.74.62-.96.25-1.84.59-2.53,1.36-.17.19-.6.27-.89.23-1.03-.11-2.06-.23-3.07-.47-1.06-.25-1.91.06-2.7.72-.26.21-.56.38-.78.63-.87.99-1.92,1.45-3.26,1.53-1.14.07-2.1.71-2.76,1.45,1.3-.09,2.67-.25,4.04-.25.89,0,1.62-.18,2.14-.93.81-1.17,1.9-1.47,3.27-1.23.92.17,1.88.18,2.82.25.73.06,1.18.4,1.32,1.3-.37.04-.79.23-1.03.09-.7-.38-1-.05-1.36.69h8.33c-.12-.74-.47-.89-1.09-.72-.32.09-.68.06-1.02.05-.02,0-.08-.44-.03-.46.4-.19.94-.56,1.21-.43,1.17.58,2.43.86,3.05,2.41,1.57,3.94,3.02,7.89,3.79,12.08.06.32.09.65.13.95-1.25.55-2.61.25-4.08-.9.29-.32.58-.64.87-.97-1.22.16-2.39.3-3,1.54-.56,1.14-1.5,1.77-2.77,1.99-.34.06-.64.4-.93.65-.27.23-.46.59-.76.75-.8.41-1.64.69-2.07,1.62-.14.29-.74.34-1.09.57-.52.33-1,.72-1.41,1.23.76-.82,1.76-.81,2.71-.77.83.04,1.29-.28,1.65-.98.57-1.1,1.54-1.75,2.74-2.26.06.26.09.43.18.83,1.38-1.62,2.85-2.76,4.82-1-.1.18-.24.42-.34.58,1.24-.22,2.5-.45,3.97-.72.13,2.17.29,4.14.34,6.1.1,4.16-.32,8.27-1.24,12.33-.17.73-.5,1.14-1.31,1.27.36-2.56.71-5.09,1.07-7.63h-.08c-.77,2.76-1.45,5.56-2.35,8.28-.89,2.71-1.99,5.34-3.08,8.23-.97-.59-1.71-1.04-2.52-1.53.29-.44.47-.71.65-.98.04.09.08.17.12.26.81-.21,1.61-.42,2.63-.68-1.34-.6-2.7-.96-3.68-2.13.33-.14.55-.24.78-.33-.28-.44-.54-.86-.81-1.29.71-.18,1.3-.33,1.9-.48.01-.08.03-.15.04-.23-1.23-.73-2.83-1.02-3.37-2.67.58.1,1.09.18,1.6.27.08-.11.16-.22.24-.32-.56-.31-1.13-.62-1.69-.93.11-.13.22-.25.33-.38l.77-.1c.06-.07.11-.14.17-.21l-1.54-1.21c.06-.08.11-.15.17-.23.33.06.65.11,1.25.22-.72-1.06-1.32-1.93-1.92-2.81.13.02.37.04.73.08-.33-.65-.63-1.24-.98-1.94.44.17.75.3,1.14.46-.77-1.58-1.49-3.03-2.16-4.4-.27.78-.61,1.71-.9,2.66-.29.97-.4,2.04-1.54,2.69.51.22.88.39,1.35.59-.36.9-1.72,1.28-1.4,2.58.25.03.54.07,1.08.14-.59,1.01-1.13,1.91-1.67,2.82.42.11.87.23,1.33.35-.12,1.27-1.06,2.01-3.12,2.4.49.98,1.08,1.16,2.29.7-.35,1.15-.59,1.27-2.78,1.5.05.31.1.62.15.98.21.02.47.03.75.05.04.37.07.7.12,1.21.46-.38.83-.69,1.3-1.08v1.01c.43-.12.8-.22,1.37-.38-.81,1.18-1.75,1.88-3.04,2.09.61,1.09.26,2.16-.84,2.53-.14.05-.53-.23-.58-.41-.23-.77-.38-1.57-.77-2.39-.12.61-.19,1.24-.37,1.84-.11.37-.3.84-.59.99-.24.12-.68-.16-1.04-.26.09-.09.18-.17.27-.26v.04Z"/>
    <path class="cls-1" d="m60.22,20.82c-.44-.02-.89-.05-1.51-.08.88,1.01,1.98,1.33,3.01,1.74,1.07.42,2.16.77,3.23,1.36h-4.98c-.03.12-.06.24-.09.37l7.88,3.36v.16c-1.52.09-3.04.17-4.56.26,0,.05-.03.11-.04.16,2.35,1.3,4.7,2.61,7.04,3.91-.04.11-.08.23-.12.34h-3.55c2.15,1.67,4.09,3.17,6.22,4.83-.55.11-.8.16-1.13.23,1.27,1.95,3.59,2.37,5.21,3.8-.67-.16-1.33-.33-2-.49,2.71,2.03,6.27,1.91,9.18,3.73-.49.11-.93.21-1.37.32-.3.07-.59.15-.88.23-2.11.57-2.41,1.37-1.14,3.21-.7.2-1.39.39-2.07.58,0,.05.02.1.02.15h2.99c.02.09.05.19.07.28-.88.31-1.75.62-2.63.93,0,.03.01.05.02.08.99-.05,1.97-.11,3.02-.16-1.31,1.91-9.82,1.7-12.51-.02,1.04-.18,1.99-.35,2.94-.52,0-.13-.01-.25-.02-.38-1.87,0-3.74.03-5.62,0-.76-.02-1.51-.2-2.26-.48,1.03-1,2.32-.94,3.57-1.37-1.42-.25-2.84-.5-4.41-.77,1.85-1.07,3.79-.73,5.66-.81,0-.1.01-.2.02-.29-2.3-.17-4.59-.33-6.89-.5l-.07.31c.25.23.49.46.84.79-.67.28-1.23.6-1.84.73-.6.12-.83.4-1.02.96-.31.9-.77,1.75-1.16,2.6,1.09-.58,2.24-1.19,3.47-1.84v2.07c-3.7,1.14-7.77,1.6-12.08,2.22,1.05.47,1.9.69,2.79.52,3.05-.58,6.09-1.2,9.13-1.81.9-.18,1.78-.46,2.68-.54.73-.07,1.5.02,2.22.17.97.2,1.91.52,2.85.94-1.41.31-2.82.58-4.21.94-3.89.99-7.6,2.36-10.89,4.76-.74.54-1.69.79-2.54,1.17l-.17-.19c1.1-1.33,2.21-2.65,3.49-4.19-4.44,1.51-8.49,3.29-12.61,5.5.64-1.85,2.04-2.95,2.96-4.35-.06-.08-.12-.16-.18-.24-2.16,1.41-4.33,2.81-6.65,4.33.93-1.58,1.8-3.05,2.66-4.51-3.41,1.53-5.64,4.44-8.25,6.88l-.22-.11c.34-.87.64-1.76,1.03-2.6.4-.85.87-1.68,1.34-2.49.49-.83,1.02-1.62,1.53-2.43-.07-.09-.14-.17-.21-.26-1.39,1.01-2.79,2.02-4.4,3.19.63-1.39,1.17-2.58,1.71-3.77-.06-.06-.13-.12-.19-.17-1.62,1.25-3.24,2.51-4.83,3.74-.1-.85.36-2.9,1.28-4.64.76-1.44,1.72-2.77,2.51-4.34-1.57.73-3.15,1.46-4.72,2.19-.05-.04-.1-.08-.15-.12,1.5-1.79,3-3.58,4.58-5.47-2.11.13-3.85.99-5.69,1.82.73-.92,1.47-1.83,2.2-2.75-.03-.07-.06-.13-.08-.2-1.44.34-2.89.69-4.33,1.03,2.71-2.32,6.13-3.26,9.25-4.91h-4.87c-.04-.1-.08-.2-.13-.3,1.89-1.37,3.78-2.74,5.88-4.27h-8.16c-.02-.07-.04-.14-.06-.22,1.92-.76,3.85-1.51,5.95-2.34-3.3-.66-6.44,1.01-9.51-.08,1.99-.39,4.01-.77,6.03-1.18.66-.13,1.29-.37,1.95-.46.49-.07,1.09-.14,1.5.06,1.19.58,2.35.34,3.76.07-1.34-.42-2.5-.79-3.65-1.15,0-.09,0-.17.02-.26h7.29c0-.08.02-.16.03-.24-.46-.3-.92-.61-1.57-1.04h5.33c-.78,1.34-1.47,2.52-2.3,3.94,2.54-.99,4.92-1.7,6.89-3.68-.54.11-.89.18-1.4.28.9-1.46,1.76-2.81,1.66-4.48-.92.91-1.83,1.83-2.75,2.74-.09-.06-.18-.11-.27-.17-.09-2.33-.19-4.67-.28-7h-.32c-.15.37-.3.75-.51,1.27-.71-1.15-1.31-2.26-2.04-3.27-2.5-3.45-5.11-6.82-7.53-10.32-1.45-2.09-2.63-4.37-3.91-6.58-.19-.33-.26-.72-.21-1.22.39.39.81.75,1.16,1.17,3.24,3.77,6.63,7.38,10.66,10.33,1.27.93,1.95,2.31,2.61,3.69.09.19.17.37.43.54v-2.57c2.62,2.14,2.55,5.09,3.21,8.01.52-1.12.96-2.06,1.52-3.25.59,1.29,1.24,2.36,1.58,3.52.33,1.13.36,2.36.53,3.65.86-1.73,1.85-3.38.95-5.39-.77-1.71-1.57-3.41-2.21-5.3,2.85,2.07,5.7,4.14,8.54,6.21-.02.08-.05.16-.07.23l-.06-.02Zm-3.74,29.61c-.65-1.11-2.52-1.45-1.62-3.17-.93-.35-1.8-.69-2.87-1.09,1.5-.69,2.74-1.26,4.01-1.85-1.6-.17-3.07-.32-4.55-.47-.06,0-.13,0-.18.03-1.31.66-2.61.16-3.91-.06-.08,0-.15-.08-.28-.15.22-.1.39-.18.56-.25-2.72-.26-5.41-.49-8.09.42.51.18,1.01.37,1.51.55-1.5.92-2.95,1.82-4.4,2.71.04.07.09.15.13.22,1.3-.09,2.6-.19,4.09-.29-.67.85-1.22,1.52-1.84,2.31,1.83-.61,3.51-1.17,5.19-1.72.04.09.08.18.12.27-.27.47-.54.94-.81,1.42.03.08.06.15.09.23,2.95-2.2,5.97-1.59,9.14-.51-.4.37-.7.65-1.08,1,1.66.15,3.16.28,4.81.42l-.02-.02Zm3.25-9.01c.45,1.13,1.19.84,1.92.57.14-.05.28-.14.43-.16.87-.13,1.74-.24,2.86-.39-.38.64-.59.98-.86,1.43.54-.08.97-.22,1.38-.19.99.07,1.97.19,2.94.35.29.05.55.46.81.45.97-.05,1.94-.2,3.17-.35-1.06-.38-2.13-.28-2.42-1.41-.02-.08-.26-.16-.4-.16-1.43,0-2.7-.34-3.54-1.62-.05-.07-.15-.1-.22-.15-.92-.67-1.52-1.49-1.58-2.71-.1-1.81-1.34-3.18-3.04-3.32-.79-.07-1.63.13-2.4.37-1.94.62-3.83,1.38-5.77,1.99-.95.3-1.97.41-2.95.6,0,.06,0,.12-.02.17.95.19,1.9.37,3.04.6-.59.27-.98.46-1.62.75.89.1,1.53.18,2.25.26-.24.33-.42.57-.56.77.48.13.91.25,1.48.41.15-.09.45-.31.77-.47.51-.25,1.07-.72,1.55-.64,1.15.18,2.26.61,3.39.94.03.08.07.16.1.24-.33.2-.65.39-1.1.66.51.21.76.32,1.09.45-.29.24-.5.42-.67.57h-.03Zm-13.49-6.55c-.19-.08-.25-.13-.29-.12-2.01.34-3.79,1.74-5.97,1.33-1.23.71-2.45,1.42-3.68,2.12,1.28.06,2.48-.19,3.61,0,.75.12,1.25,0,1.81-.36.55-.37,1.15-.68,1.71-1.04.92-.61,1.83-1.25,2.82-1.92h0Z"/>
    <path class="cls-1" d="m16.17,34.18c1.32-.39,2.64-.79,3.96-1.18.05.07.1.15.15.22-3.34,3.51-5.21,7.93-7.77,12.08.41-.23.71-.39,1-.55.06.05.12.1.18.15-1.04,1.97-2.08,3.93-3.24,6.12-.82-1.57-2.05-1.17-3.22-1.12-.29,0-.6-.2-.9-.32-.98-.38-1.97-.72-2.92-1.14-.98-.43-1.84-.18-2.84.59.06-.6.07-.92.12-1.23.67-3.82,1.66-7.54,3.13-11.14.24-.59.59-.94,1.26-1,.96-.09,1.11.02,1.05,1.03.49.18.99.37,1.56.59-.07-.32-.12-.59-.18-.86,1.68-.41,2.07-.24,2.95,1.06.2.3.63.51,1,.6.57.14,1.18.13,1.99,0-.19-.08-.37-.15-.55-.24-1.17-.59-2.28-1.22-3.17-2.24-.32-.36-1.02-.46-1.57-.53-.69-.09-1.26-.25-1.74-.82-.27-.32-.81-.4-1.35-.65,4.73-9.75,11.72-17.64,20.86-23.72-.15,3.05-.48,6.01-.39,8.95.09,2.93.58,5.86.92,8.92-3.67,1.48-7.1,3.74-10.28,6.4v.02Z"/>
    <path class="cls-1" d="m6.47,58.52c.83-.53,1.65-1.07,2.62-1.69-.6,6.53-.87,12.95-3.01,19.37-2.01-4.81-3.02-9.64-4.39-14.39.32,2.46.65,4.91.98,7.45-.74-.28-1.27-.59-1.44-1.44C.2,62.84-.22,57.83.11,52.76c0-.12,0-.24.02-.36.1-1.88.53-2.46,2.3-3.04.17-.06.45-.03.57.09.5.46.95.98,1.42,1.47-.04.09-.08.18-.12.26h-1.6c0,.07,0,.14,0,.22,1.38.45,2.76.9,4.35,1.42-.3-.54-.48-.86-.74-1.34,1.33-.06,2.49-.11,3.65-.16.04.1.07.21.11.31-1.26,2.26-2.52,4.51-3.78,6.77.06.05.12.1.18.14v-.02Z"/>
    <path class="cls-2" d="m19.81,100.29c.09,1.05.15,1.88.24,2.91-.52-.17-.9-.29-1.27-.4.07.05.15.1.22.15-.36.43-.71.85-1.07,1.28-.14-.1-.28-.2-.41-.3.42.61.84,1.22,1.25,1.83-.03.08-.07.16-.1.24-1.9-.36-3.81-.63-5.68-1.11-.76-.19-1.32-.15-1.91.29-.29.22-.62.38-1.01.48.91-1.14,1.33-2.76,3.1-3.06.03,0,.06-.02.09-.02,2.18-.27,3.9-1.2,4.85-3.3.46-1.01,1.23-1.24,2.31-.96,3.03.79,6.08,1.5,9.12,2.25.2.05.4.16.55.3,1.25,1.19,2.49,2.39,3.79,3.63-2.41.45-4.61-.48-6.87-.92-.05.08-.09.17-.14.25.58.45,1.17.89,1.82,1.39-1.14.22-2.04.16-3.01-.65-1.81-1.51-3.8-2.8-5.87-4.3v.02Z"/>
    <path class="cls-1" d="m92.03,103.65c-.79-.81-1.55-.72-2.26-.23-1.4.95-2.98,1.11-4.7.93,1.6-.72,3.17-1.91,4.81-2.01,1.45-.09,2.01-.77,2.52-1.66,1.1-1.94,3.19-2.21,4.89-3.12.19-.1.58.07.84.18,1.5.67,2.99,1.36,4.49,2.04,1.34.6,1.47,2.06,2.33,3-.06.07-.12.15-.18.22-.46-.24-1.01-.39-1.37-.73-.51-.48-.94-.37-1.47-.13-.88.4-1.78.75-2.77,1.17-.05-.73-.1-1.42-.15-2.23-.92.37-1.89.7-2.79,1.15-.73.37-1.22.32-1.64-.41-.17-.31-.43-.58-.7-.94-.62.92-1.2,1.79-1.85,2.77h0Z"/>
    <path class="cls-2" d="m41.47,26.23c-3.45-1.35-5.57-3.98-7.49-7.08.31.09.47.13.59.17-.5-1.89-1.01-3.79-1.51-5.69.1-.04.19-.09.29-.13.37.54.73,1.08,1.26,1.86v-4.55c.06-.01.13-.02.19-.03.06.12.14.23.17.36.45,2.17.89,4.34,1.36,6.51.08.37.22.78.46,1.06,1.12,1.32,2.19,2.71,3.47,3.85,1.18,1.05,1.18,2.28,1.2,3.68h0Z"/>
    <path class="cls-2" d="m47.63,89.04c-1.21-2.37-2.46-4.73-2.83-7.66-.31-2.44-.02-4.75,1.07-6.94.1,1.53.13,2.96.32,4.34.17,1.17.55,2.29.82,3.44.14.6.25,1.22.32,1.84.18,1.64.35,3.28.52,4.92-.07.02-.14.04-.21.05h0Z"/>
    <path class="cls-2" d="m60.28,64.48c-2.28,5.23-1.57,10.97-2.79,16.36-.63-.81-1.61-4.11-1.54-5.25.2-3.18,2.26-8.56,4.33-11.11Z"/>
    <path class="cls-1" d="m24.18,58.34c-1.5,5.05-2.93,10.06-.63,15.42-.3-.22-.48-.3-.58-.44-.95-1.3-1.9-2.6-2.82-3.93-.16-.23-.24-.58-.2-.86.52-3.66,1.58-7.12,3.97-10.05.05-.06.14-.08.25-.15h.01Z"/>
    <path class="cls-2" d="m52.36,68.15c-.05.39-.07.78-.14,1.17-.49,2.93.07,5.73,1.31,8.34.8,1.68.72,3.27.28,4.95-.12.47-.25.94-.4,1.52-.9-2.15-1.77-4.21-2.72-6.48.35.28.56.45.76.61h.26c-.94-3.47-1.34-6.9.64-10.12h.01Z"/>
    <path class="cls-2" d="m70.55,105.82c1.75-.72,3.51-1.43,5.26-2.16.3-.13.59-.31.85-.5,1.22-.91,2.41-1.85,3.65-2.74.24-.18.62-.26.93-.25.97.02,1.94.1,2.91.16.15,0,.36.08.44,0,1.27-1.05,2.4-.15,3.56.24.14.05.27.1.41.31-1.85.33-3.7.82-5.56.93-1.44.09-2.67.48-3.87,1.17-.79.45-1.57.93-2.39,1.33-.45.23-.89.85-1.5.16-.08-.09-.55.15-.83.26-1.24.48-2.47.98-3.71,1.46-.06-.13-.11-.25-.17-.38h.02Z"/>
    <path class="cls-2" d="m21.39,53.39c-.4,1.06-.79,1.97-1.09,2.92-.32,1.04-.55,2.11-.82,3.17-.05.18-.06.37-.15.52-1.65,2.6-1.62,5.55-1.82,8.46-.02.36,0,.73,0,1.21-2.08-4.77-.62-12.29,3.88-16.27h0Z"/>
    <path class="cls-2" d="m33.52,79.55c.51-.59,1.03-1.17,1.53-1.77,1.63-2,2.53-4.33,3.13-6.82.52-2.12,1.21-4.19,1.82-6.29.09.01.18.03.28.04,0,.94.15,1.91-.03,2.81-.56,2.77-1.24,5.52-1.91,8.26-.09.36-.29.78-.58,1-1.33,1.02-2.71,1.98-4.08,2.96l-.15-.2h0Z"/>
    <path class="cls-1" d="m19.11,46.71c-3.36,2.81-6.72,5.62-10.14,8.49,2.6-3.8,4.85-7.88,10.14-8.49Z"/>
    <path class="cls-1" d="m28.09,7.69c.24,5.28-.27,10.62,1.49,15.78-.1.04-.21.08-.31.11-.39-.85-.84-1.68-1.17-2.56-1.18-3.13-.84-6.35-.51-9.56.13-1.26.33-2.52.49-3.78h.01Z"/>
    <path class="cls-1" d="m10.73,70.38c-.91-4.39,1.07-8.02,3.07-11.64-.38,4.05-2.34,7.68-3.07,11.64Z"/>
    <path class="cls-2" d="m44.57,105.54c1.78,0,3.57-.04,5.35.02.49.02.96.36,1.45.48,1.32.33,2.66.61,3.98.94.24.06.45.27.67.41-.23.11-.49.35-.7.31-2.19-.32-4.37-.67-6.55-1.05-1.42-.25-2.83-.56-4.25-.85,0-.09.02-.18.04-.27h.01Z"/>
    <path class="cls-1" d="m58.24,10.52c.69,2.51,1.38,5.02,2.1,7.62-2.15-.87-2.9-1.99-2.73-4.08.09-1.19.29-2.36.44-3.54h.19Z"/>
    <path class="cls-2" d="m39.02,86.76c2.32,3.56,1.22,6.68-1.86,8.78,1.77-2.78,1.7-5.7,1.86-8.78Z"/>
    <path class="cls-2" d="m44.38,91.1c-.36-.64-.77-1.39-1.18-2.13-.09-.16-.18-.32-.23-.49-.44-1.72-.87-3.45-1.28-5.06,2.3,1.47,3.75,5.71,2.69,7.68Z"/>
    <path class="cls-2" d="m23.47,37.6c-3.1.65-5.31,2.51-7.7,4.17.71-1.28,3.75-4.48,4.79-5.04.19-.1.48-.14.68-.07.68.25,1.33.55,2.22.93h.01Z"/>
    <path class="cls-2" d="m68.41,106.16c-3.23.54-6.47,1.07-9.7,1.61-.16-.73.06-.91.6-1,2.18-.38,4.34-.88,6.52-1.19.83-.12,1.71.13,2.56.21,0,.13.01.25.02.38h0Z"/>
    <path class="cls-2" d="m81.23,46.48c1.56-.35,3.11-.77,4.69-1,.48-.07,1.03.39,1.5.78-2.06.91-4.12.76-6.18.5,0-.09-.01-.19-.02-.28h0Z"/>
    <path class="cls-2" d="m60.57,69.55v7.25c-1.53-2.11-1.41-5.14,0-7.25Z"/>
    <path class="cls-1" d="m1.52,69.81h1.32c.07.77.14,1.55.22,2.49-.39-.19-.62-.3-.96-.47,1.18-.96.09-1.34-.58-2.01h0Z"/>
    <path class="cls-1" d="m115.67,72.24c-.07-2.14.01-2.51.61-2.37-.13.26-.25.41-.31.64-.07.25-.15.73-.1.85.3.7.02.69-.2.88Z"/>
    <path class="cls-2" d="m62.86,36.59c.76.2.69.76.6,1.24-.12.6-.49,1.1-1.17,1.07-.8-.03-1.59-.19-2.38-.29,0-.13.02-.25.02-.38.29.03.58.05.88.09.5.06,1.01.26,1.48.18.79-.13.97-.71.57-1.45-.06-.1,0-.27,0-.46Z"/>
    <path class="cls-2" d="m59.56,37.86v-1.68c.53-.1,1.13-.22,1.74-.34-.44.33-1.22.24-.97,1.18.17.02.38.05.59.07,0,.06.03.12.04.19-.43.18-.85.36-1.4.59h0Z"/>
  </g>
  <g>
    <path class="cls-1" d="m157.2,67.98v-.99c0-2.64,1.32-3.96,3.96-3.96h19.32c2.64,0,3.96-1.32,3.96-3.96v-14.06c0-2.64-1.32-3.96-3.96-3.96h-18.44c-2.64,0-3.96-1.32-3.96-3.96v-1.1c0-2.64,1.32-3.96,3.96-3.96h18.44c2.64,0,3.96-1.32,3.96-3.96v-14.47c0-2.64-1.32-3.96-3.96-3.96h-19.32c-2.64,0-3.96-1.32-3.96-3.96v-1.1c0-2.64,1.32-3.96,3.96-3.96h22.18c1.93,0,3.52.66,4.84,1.98l3.16,3.16c1.32,1.32,1.98,2.94,1.98,4.84v18.52c0,1.84-.66,3.49-1.98,4.95-.8.8-1.18,1.62-1.18,2.48,0,.8.33,1.51.99,2.17l.19.19c1.32,1.32,1.98,2.97,1.98,4.95v18.02c0,1.93-.66,3.52-1.98,4.84l-3.16,3.16c-1.32,1.32-2.94,1.98-4.84,1.98h-22.18c-2.64,0-3.96-1.32-3.96-3.96v.08Z"/>
    <path class="cls-1" d="m203.26,61.85V10.72c-.06-1.93.61-3.58,1.98-4.95l3.16-3.16c1.32-1.32,2.94-1.98,4.84-1.98h19.21c1.84,0,3.47.69,4.84,2.09l3.16,3.16c1.32,1.32,1.98,2.94,1.98,4.84v51.13c.14,1.84-.52,3.49-1.98,4.95l-3.16,3.16c-1.32,1.32-2.94,1.98-4.84,1.98h-19.12c-1.93,0-3.52-.66-4.84-1.98l-3.27-3.27c-1.32-1.32-1.98-2.94-1.98-4.84h.03Zm12.99,1.1h13.26c2.64,0,3.96-1.32,3.96-3.96V13.61c0-2.64-1.32-3.96-3.96-3.96h-13.26c-2.64,0-3.96,1.32-3.96,3.96v45.37c0,2.64,1.32,3.96,3.96,3.96Z"/>
    <path class="cls-1" d="m252.38,67.98V4.78c0-2.64,1.32-3.96,3.96-3.96h25.15c1.84,0,3.47.69,4.84,2.09l3.16,3.16c1.32,1.32,1.98,2.94,1.98,4.84v18.44c0,1.84-.66,3.49-1.98,4.95-.8.8-1.18,1.62-1.18,2.48,0,.8.33,1.51.99,2.17l.19.19c1.32,1.32,1.98,2.97,1.98,4.95v17.72c.14,1.84-.52,3.49-1.98,4.95l-3.16,3.16c-1.32,1.32-2.94,1.98-4.84,1.98h-25.15c-2.64,0-3.96-1.32-3.96-3.96v.03Zm12.99-35.77h13.18c2.7,0,4.07-1.32,4.07-3.96v-14.47c0-2.64-1.32-3.96-3.96-3.96h-13.26c-2.64,0-3.96,1.32-3.96,3.96v14.47c0,2.64,1.32,3.96,3.96,3.96h-.03Zm0,30.71h13.26c2.64,0,3.96-1.32,3.96-3.96v-13.76c0-2.64-1.32-3.96-3.96-3.96h-13.26c-2.64,0-3.96,1.32-3.96,3.96v13.76c0,2.64,1.32,3.96,3.96,3.96Z"/>
  </g>
  <g>
    <path class="cls-1" d="m158.1,107.21v-11.48c0-.48.24-.72.72-.72h6.12c.48,0,.72.24.72.72v11.48c0,.48-.24.72-.72.72h-.2c-.48,0-.72-.24-.72-.72v-9.85c0-.48-.24-.72-.72-.72h-2.84c-.48,0-.72.24-.72.72v9.85c0,.48-.24.72-.72.72h-.2c-.48,0-.72-.24-.72-.72Z"/>
    <path class="cls-1" d="m167.82,106.98c-.24-.24-.36-.53-.36-.88v-5.22c0-.35.12-.64.36-.88l.59-.59c.24-.24.53-.36.88-.36h2.23c.35,0,.64.12.88.36l.58.58c.24.26.36.56.36.9v5.22c.02.34-.1.64-.36.9l-.58.58c-.24.24-.53.36-.88.36h-2.23c-.35,0-.64-.12-.88-.36l-.59-.59Zm2-.68h1.17c.48,0,.72-.24.72-.72v-4.18c0-.48-.24-.72-.72-.72h-1.17c-.48,0-.72.24-.72.72v4.18c0,.48.24.72.72.72Z"/>
    <path class="cls-1" d="m175.51,106.96c-.24-.24-.36-.53-.36-.88v-5.2c0-.35.12-.64.36-.88l.59-.59c.24-.24.53-.36.88-.36h3.29c.48,0,.72.24.72.72v.2c0,.48-.24.72-.72.72h-2.77c-.48,0-.72.24-.72.72v4.16c0,.48.24.72.72.72h2.77c.48,0,.72.24.72.72v.2c0,.48-.24.72-.72.72h-3.29c-.35,0-.64-.12-.88-.36l-.59-.59Z"/>
    <path class="cls-1" d="m182.17,107.03c0-.48.2-.72.59-.72s.58-.24.58-.72v-5.83c0-.48.24-.72.72-.72h4.32c.48,0,.72.24.72.72v7.43c0,.48-.24.72-.72.72h-.18c-.48,0-.72-.24-.72-.72v-5.8c0-.48-.24-.72-.72-.72h-1.08c-.48,0-.72.24-.72.72v4.52c0,.47-.17.87-.5,1.21l-.31.31c-.34.34-.75.5-1.24.5h-.02c-.48,0-.72-.24-.72-.72v-.18Z"/>
    <path class="cls-1" d="m191.26,106.96c-.24-.24-.36-.53-.36-.88v-5.22c0-.35.12-.64.36-.88l.58-.58c.24-.24.53-.36.88-.36h2.21c.35,0,.64.12.88.36l.58.58c.24.24.36.53.36.88v3.01c0,.48-.24.72-.72.72h-2.77c-.48,0-.72.24-.72.72v.25c0,.48.24.72.72.72h2.77c.48,0,.72.24.72.72v.2c0,.48-.24.72-.72.72h-3.31c-.34,0-.63-.13-.88-.38l-.58-.58Zm2-3.82h1.13c.48,0,.72-.24.72-.72v-1.04c0-.48-.24-.72-.72-.72h-1.13c-.48,0-.72.24-.72.72v1.04c0,.48.24.72.72.72Z"/>
    <path class="cls-1" d="m198.19,107c0-.48.15-.72.45-.72s.62-.16.94-.47l.34-.34c.34-.33.5-.74.5-1.22v-4.48c0-.48.24-.72.72-.72h4.18c.48,0,.72.24.72.72v5.8c0,.48.21.72.63.72s.63.24.63.72v2.34c0,.48-.24.72-.72.72h-.2c-.48,0-.72-.24-.72-.72v-.77c0-.43-.24-.65-.72-.65h-4.39c-.48,0-.72.22-.72.65v.77c0,.48-.24.72-.72.72h-.2c-.48,0-.72-.24-.72-.72v-2.34Zm3.64-.72h1.85c.48,0,.72-.24.72-.72v-4.16c0-.48-.24-.72-.72-.72h-.9c-.48,0-.72.24-.72.72v3.49c0,.38-.13.71-.4.97-.02.02-.06.06-.1.11s-.06.1-.06.14c0,.11.11.16.32.16Z"/>
    <path class="cls-1" d="m209.76,99.76c0-.48.24-.72.72-.72h.18c.48,0,.72.24.72.72v2.16c0,.48.24.72.72.72h1.19c.48,0,.72-.24.72-.72v-2.16c0-.48.24-.72.72-.72h.18c.48,0,.72.24.72.72v7.43c0,.48-.24.72-.72.72h-.18c-.48,0-.72-.24-.72-.72v-2.2c0-.48-.24-.72-.72-.72h-1.19c-.48,0-.72.24-.72.72v2.2c0,.48-.24.72-.72.72h-.18c-.48,0-.72-.24-.72-.72v-7.43Z"/>
    <path class="cls-1" d="m217.43,107.21v-7.45c0-.48.24-.72.72-.72h.18c.48,0,.72.24.72.72v3.64c0,.26.03.4.09.4.07,0,.15-.11.23-.32l1.64-3.76c.19-.44.53-.67,1.01-.67h.25c.48,0,.72.24.72.72v7.45c0,.48-.24.72-.72.72h-.18c-.48,0-.72-.24-.72-.72v-3.85c0-.26-.03-.4-.09-.4s-.14.11-.23.32l-1.73,3.98c-.19.44-.53.67-1.01.67h-.16c-.48,0-.72-.24-.72-.72Z"/>
    <path class="cls-1" d="m224.79,107.21v-7.45c0-.48.24-.72.72-.72h.18c.48,0,.72.24.72.72v3.64c0,.26.03.4.09.4.07,0,.15-.11.23-.32l1.64-3.76c.19-.44.53-.67,1.01-.67h.25c.48,0,.72.24.72.72v7.45c0,.48-.24.72-.72.72h-.18c-.48,0-.72-.24-.72-.72v-3.85c0-.26-.03-.4-.09-.4s-.14.11-.23.32l-1.73,3.98c-.19.44-.53.67-1.01.67h-.16c-.48,0-.72-.24-.72-.72Zm.71-11.2c.1-.1.24-.14.42-.14.34,0,.52.19.56.56.02.26.14.48.36.65s.46.25.74.25.53-.08.76-.25c.23-.17.35-.38.38-.65.04-.37.22-.56.56-.56.18,0,.32.05.41.14.1.1.14.2.14.32,0,.29-.07.56-.2.82-.13.26-.3.48-.5.66-.22.19-.46.34-.73.45-.27.11-.54.16-.82.16s-.55-.05-.81-.16c-.26-.11-.5-.26-.7-.45-.22-.18-.39-.4-.52-.66-.13-.26-.2-.53-.2-.82,0-.12.05-.23.15-.32Z"/>
    <path class="cls-1" d="m235.39,107.21v-7.45c0-.48.24-.72.72-.72h2.57c.48,0,.89.17,1.22.5l.29.31c.34.34.5.74.5,1.22v1.03c0,.36-.15.71-.45,1.04-.1.12-.14.24-.14.36,0,.13.05.25.16.36.3.3.45.66.45,1.08v.95c0,.48-.17.89-.5,1.22l-.29.31c-.34.34-.74.5-1.22.5h-2.59c-.48,0-.72-.24-.72-.72Zm2.34-4.54h.63c.48,0,.72-.24.72-.72v-.59c0-.48-.24-.72-.72-.72h-.63c-.48,0-.72.24-.72.72v.59c0,.48.24.72.72.72Zm0,3.65h.65c.48,0,.72-.24.72-.72v-.61c0-.48-.24-.72-.72-.72h-.65c-.48,0-.72.24-.72.72v.61c0,.48.24.72.72.72Z"/>
    <path class="cls-1" d="m242.7,106.98c-.24-.24-.36-.53-.36-.88v-5.22c0-.35.12-.64.36-.88l.59-.59c.24-.24.53-.36.88-.36h2.23c.35,0,.64.12.88.36l.58.58c.24.26.36.56.36.9v5.22c.02.34-.1.64-.36.9l-.58.58c-.24.24-.53.36-.88.36h-2.23c-.35,0-.64-.12-.88-.36l-.59-.59Zm2-.68h1.17c.48,0,.72-.24.72-.72v-4.18c0-.48-.24-.72-.72-.72h-1.17c-.48,0-.72.24-.72.72v4.18c0,.48.24.72.72.72Z"/>
    <path class="cls-1" d="m250.03,107.21v-7.45c0-.48.24-.72.72-.72h.18c.48,0,.72.24.72.72v3.64c0,.26.03.4.09.4.07,0,.15-.11.23-.32l1.64-3.76c.19-.44.53-.67,1.01-.67h.25c.48,0,.72.24.72.72v7.45c0,.48-.24.72-.72.72h-.18c-.48,0-.72-.24-.72-.72v-3.85c0-.26-.03-.4-.09-.4s-.14.11-.23.32l-1.73,3.98c-.19.44-.53.67-1.01.67h-.16c-.48,0-.72-.24-.72-.72Zm.71-11.2c.1-.1.24-.14.42-.14.34,0,.52.19.56.56.02.26.14.48.36.65s.46.25.74.25.53-.08.76-.25c.23-.17.35-.38.38-.65.04-.37.22-.56.56-.56.18,0,.32.05.41.14.1.1.14.2.14.32,0,.29-.07.56-.2.82-.13.26-.3.48-.5.66-.22.19-.46.34-.73.45-.27.11-.54.16-.82.16s-.55-.05-.81-.16c-.26-.11-.5-.26-.7-.45-.22-.18-.39-.4-.52-.66-.13-.26-.2-.53-.2-.82,0-.12.05-.23.15-.32Z"/>
    <path class="cls-1" d="m260.63,107.21v-7.45c0-.48.24-.72.72-.72h2.57c.48,0,.89.17,1.22.5l.29.31c.34.34.5.74.5,1.22v1.03c0,.36-.15.71-.45,1.04-.1.12-.14.24-.14.36,0,.13.05.25.16.36.3.3.45.66.45,1.08v.95c0,.48-.17.89-.5,1.22l-.29.31c-.34.34-.74.5-1.22.5h-2.59c-.48,0-.72-.24-.72-.72Zm2.34-4.54h.63c.48,0,.72-.24.72-.72v-.59c0-.48-.24-.72-.72-.72h-.63c-.48,0-.72.24-.72.72v.59c0,.48.24.72.72.72Zm0,3.65h.65c.48,0,.72-.24.72-.72v-.61c0-.48-.24-.72-.72-.72h-.65c-.48,0-.72.24-.72.72v.61c0,.48.24.72.72.72Z"/>
    <path class="cls-1" d="m272.71,101.38c0-.48-.24-.72-.72-.72h-.81c-.48,0-.72-.24-.72-.72v-.18c0-.48.24-.72.72-.72h4.7c.48,0,.72.24.72.72v.18c0,.48-.24.72-.72.72h-.81c-.48,0-.72.24-.72.72v5.81c0,.48-.24.72-.72.72h-.2c-.48,0-.72-.24-.72-.72v-5.81Z"/>
    <path class="cls-1" d="m278.03,107.21v-7.45c0-.48.24-.72.72-.72h.18c.48,0,.72.24.72.72v3.64c0,.26.03.4.09.4.07,0,.15-.11.23-.32l1.64-3.76c.19-.44.53-.67,1.01-.67h.25c.48,0,.72.24.72.72v7.45c0,.48-.24.72-.72.72h-.18c-.48,0-.72-.24-.72-.72v-3.85c0-.26-.03-.4-.09-.4s-.14.11-.23.32l-1.73,3.98c-.19.44-.53.67-1.01.67h-.16c-.48,0-.72-.24-.72-.72Z"/>
    <path class="cls-1" d="m285.39,99.76c0-.48.24-.72.72-.72h.18c.48,0,.72.24.72.72v5.8c0,.48.24.72.72.72h.43c.48,0,.72-.24.72-.72v-5.8c0-.48.24-.72.72-.72h.18c.48,0,.72.24.72.72v5.8c0,.48.24.72.72.72h.52c.48,0,.72-.24.72-.72v-5.8c0-.48.24-.72.72-.72h.18c.48,0,.72.24.72.72v7.43c0,.48-.24.72-.72.72h-7.25c-.48,0-.72-.24-.72-.72v-7.43Z"/>
    <path class="cls-1" d="m295.89,107.21v-7.45c0-.48.24-.72.72-.72h.18c.48,0,.72.24.72.72v3.64c0,.26.03.4.09.4.07,0,.15-.11.23-.32l1.64-3.76c.19-.44.53-.67,1.01-.67h.25c.48,0,.72.24.72.72v7.45c0,.48-.24.72-.72.72h-.18c-.48,0-.72-.24-.72-.72v-3.85c0-.26-.03-.4-.09-.4s-.14.11-.23.32l-1.73,3.98c-.19.44-.53.67-1.01.67h-.16c-.48,0-.72-.24-.72-.72Z"/>
    <path class="cls-1" d="m303.25,99.76c0-.48.24-.72.72-.72h.18c.48,0,.72.24.72.72v2.16c0,.48.24.72.72.72h1.19c.48,0,.72-.24.72-.72v-2.16c0-.48.24-.72.72-.72h.18c.48,0,.72.24.72.72v7.43c0,.48-.24.72-.72.72h-.18c-.48,0-.72-.24-.72-.72v-2.2c0-.48-.24-.72-.72-.72h-1.19c-.48,0-.72.24-.72.72v2.2c0,.48-.24.72-.72.72h-.18c-.48,0-.72-.24-.72-.72v-7.43Z"/>
    <path class="cls-1" d="m311.28,106.96c-.24-.24-.36-.53-.36-.88v-5.22c0-.35.12-.64.36-.88l.58-.58c.24-.24.53-.36.88-.36h2.21c.35,0,.64.12.88.36l.58.58c.24.24.36.53.36.88v3.01c0,.48-.24.72-.72.72h-2.77c-.48,0-.72.24-.72.72v.25c0,.48.24.72.72.72h2.77c.48,0,.72.24.72.72v.2c0,.48-.24.72-.72.72h-3.31c-.34,0-.63-.13-.88-.38l-.58-.58Zm2-3.82h1.13c.48,0,.72-.24.72-.72v-1.04c0-.48-.24-.72-.72-.72h-1.13c-.48,0-.72.24-.72.72v1.04c0,.48.24.72.72.72Z"/>
  </g>
</svg>