<svg width="299" height="29" viewBox="0 0 299 29" fill="none" xmlns="http://www.w3.org/2000/svg">
<rect x="111" width="29" height="29" fill="#1D2837"/>
<rect x="111.5" y="0.5" width="28" height="28" stroke="white" stroke-opacity="0.57"/>
<path d="M122.9 20.135C122.5 20.135 122.3 19.935 122.3 19.535V19.37C122.3 18.97 122.485 18.77 122.855 18.77C123.225 18.77 123.41 18.57 123.41 18.17V11.285C123.41 10.885 123.225 10.685 122.855 10.685C122.485 10.685 122.3 10.485 122.3 10.085V9.92C122.3 9.52 122.5 9.32 122.9 9.32H123.26C123.55 9.32 123.795 9.42 123.995 9.62L124.475 10.1C124.675 10.3 124.775 10.545 124.775 10.835V18.17C124.775 18.57 124.925 18.77 125.225 18.77C125.515 18.77 125.66 18.97 125.66 19.37V19.535C125.66 19.935 125.46 20.135 125.06 20.135H122.9Z" fill="white"/>
<rect x="139.5" y="0.5" width="28" height="28" stroke="white" stroke-opacity="0.57"/>
<path d="M151.08 19.475C150.86 19.265 150.75 19.015 150.75 18.725V15.605C150.75 15.325 150.855 15.08 151.065 14.87L151.53 14.405C151.73 14.205 151.975 14.105 152.265 14.105H154.905C155.305 14.105 155.505 13.905 155.505 13.505V11.3C155.505 10.9 155.305 10.7 154.905 10.7H151.35C150.95 10.7 150.75 10.5 150.75 10.1V9.935C150.75 9.535 150.95 9.335 151.35 9.335H155.34C155.62 9.335 155.865 9.44 156.075 9.65L156.555 10.13C156.755 10.33 156.855 10.575 156.855 10.865V13.94C156.875 14.22 156.775 14.47 156.555 14.69L156.075 15.17C155.875 15.37 155.63 15.47 155.34 15.47H152.715C152.315 15.47 152.115 15.67 152.115 16.07V18.17C152.115 18.57 152.315 18.77 152.715 18.77H156.255C156.655 18.77 156.855 18.97 156.855 19.37V19.535C156.855 19.935 156.655 20.135 156.255 20.135H152.25C151.98 20.135 151.735 20.04 151.515 19.85L151.08 19.475Z" fill="white"/>
<rect x="168.5" y="0.5" width="28" height="28" stroke="white" stroke-opacity="0.57"/>
<path d="M180.2 20.135C179.8 20.135 179.6 19.935 179.6 19.535V19.385C179.6 18.985 179.8 18.785 180.2 18.785H183.77C184.17 18.785 184.37 18.585 184.37 18.185V16.055C184.37 15.655 184.17 15.455 183.77 15.455H180.335C179.935 15.455 179.735 15.255 179.735 14.855V14.69C179.735 14.29 179.935 14.09 180.335 14.09H183.77C184.17 14.09 184.37 13.89 184.37 13.49V11.3C184.37 10.9 184.17 10.7 183.77 10.7H180.2C179.8 10.7 179.6 10.5 179.6 10.1V9.935C179.6 9.535 179.8 9.335 180.2 9.335H184.205C184.495 9.335 184.74 9.435 184.94 9.635L185.42 10.115C185.62 10.315 185.72 10.56 185.72 10.85V13.655C185.72 13.935 185.62 14.185 185.42 14.405C185.3 14.525 185.24 14.65 185.24 14.78C185.24 14.9 185.29 15.01 185.39 15.11L185.42 15.14C185.62 15.34 185.72 15.59 185.72 15.89V18.62C185.72 18.91 185.62 19.155 185.42 19.355L184.94 19.835C184.74 20.035 184.495 20.135 184.205 20.135H180.2Z" fill="white"/>
<path d="M223.354 14.3536C223.549 14.1583 223.549 13.8417 223.354 13.6464L220.172 10.4645C219.976 10.2692 219.66 10.2692 219.464 10.4645C219.269 10.6597 219.269 10.9763 219.464 11.1716L222.293 14L219.464 16.8284C219.269 17.0237 219.269 17.3403 219.464 17.5355C219.66 17.7308 219.976 17.7308 220.172 17.5355L223.354 14.3536ZM208 14V14.5H223V14V13.5H208V14Z" fill="white"/>
<path d="M80.6464 13.6464C80.4512 13.8417 80.4512 14.1583 80.6464 14.3536L83.8284 17.5355C84.0237 17.7308 84.3403 17.7308 84.5355 17.5355C84.7308 17.3403 84.7308 17.0237 84.5355 16.8284L81.7071 14L84.5355 11.1716C84.7308 10.9763 84.7308 10.6597 84.5355 10.4645C84.3403 10.2692 84.0237 10.2692 83.8284 10.4645L80.6464 13.6464ZM96 14L96 13.5L81 13.5L81 14L81 14.5L96 14.5L96 14Z" fill="white"/>
<path d="M1.35 19.135C0.95 19.135 0.75 18.935 0.75 18.535V8.965C0.75 8.565 0.95 8.365 1.35 8.365H5.16C5.44 8.365 5.685 8.47 5.895 8.68L6.375 9.16C6.575 9.36 6.675 9.605 6.675 9.895V12.685C6.675 12.965 6.575 13.215 6.375 13.435C6.255 13.555 6.195 13.68 6.195 13.81C6.195 13.93 6.245 14.04 6.345 14.14L6.375 14.17C6.575 14.37 6.675 14.62 6.675 14.92V17.605C6.695 17.885 6.595 18.135 6.375 18.355L5.895 18.835C5.695 19.035 5.45 19.135 5.16 19.135H1.35ZM2.115 12.52C2.115 12.92 2.315 13.12 2.715 13.12H4.71C5.12 13.12 5.325 12.92 5.325 12.52V10.33C5.325 9.93 5.125 9.73 4.725 9.73H2.715C2.315 9.73 2.115 9.93 2.115 10.33V12.52ZM2.115 17.17C2.115 17.57 2.315 17.77 2.715 17.77H4.725C5.125 17.77 5.325 17.57 5.325 17.17V15.085C5.325 14.685 5.125 14.485 4.725 14.485H2.715C2.315 14.485 2.115 14.685 2.115 15.085V17.17ZM10.8721 18.52V12.325C10.8721 11.925 11.0721 11.725 11.4721 11.725H11.6221C12.0221 11.725 12.2221 11.925 12.2221 12.325V14.125C12.2221 14.525 12.4221 14.725 12.8221 14.725H13.8121C14.2121 14.725 14.4121 14.525 14.4121 14.125V12.325C14.4121 11.925 14.6121 11.725 15.0121 11.725H15.1621C15.5621 11.725 15.7621 11.925 15.7621 12.325V18.52C15.7621 18.92 15.5621 19.12 15.1621 19.12H15.0121C14.6121 19.12 14.4121 18.92 14.4121 18.52V16.69C14.4121 16.29 14.2121 16.09 13.8121 16.09H12.8221C12.4221 16.09 12.2221 16.29 12.2221 16.69V18.52C12.2221 18.92 12.0221 19.12 11.6221 19.12H11.4721C11.0721 19.12 10.8721 18.92 10.8721 18.52ZM18.0538 18.82L17.5588 18.325C17.3588 18.125 17.2588 17.88 17.2588 17.59V15.85C17.2588 15.57 17.3638 15.325 17.5738 15.115L18.0538 14.635C18.2538 14.435 18.4988 14.335 18.7888 14.335H20.2138C20.6138 14.335 20.8138 14.135 20.8138 13.735V13.69C20.8138 13.29 20.6138 13.09 20.2138 13.09H17.9038C17.5038 13.09 17.3038 12.89 17.3038 12.49V12.325C17.3038 11.925 17.5038 11.725 17.9038 11.725H20.6488C20.9388 11.725 21.1838 11.825 21.3838 12.025L21.8788 12.52C22.0788 12.72 22.1788 12.965 22.1788 13.255V18.52C22.1788 18.92 21.9788 19.12 21.5788 19.12H18.7888C18.4988 19.12 18.2538 19.02 18.0538 18.82ZM18.6238 17.29C18.6238 17.69 18.8238 17.89 19.2238 17.89H20.2138C20.6138 17.89 20.8138 17.69 20.8138 17.29V16.165C20.8138 15.765 20.6138 15.565 20.2138 15.565H19.2238C18.8238 15.565 18.6238 15.765 18.6238 16.165V17.29ZM24.2109 16.465L23.9559 16.21C23.6759 15.93 23.5359 15.59 23.5359 15.19V12.31C23.5359 11.91 23.7359 11.71 24.1359 11.71H24.2709C24.6709 11.71 24.8709 11.91 24.8709 12.31V14.965C24.8709 15.365 25.0709 15.565 25.4709 15.565C25.8709 15.565 26.2109 15.425 26.4909 15.145L26.7459 14.89C27.0259 14.61 27.1659 14.27 27.1659 13.87V12.31C27.1659 11.91 27.3659 11.71 27.7659 11.71H27.9159C28.3159 11.71 28.5159 11.91 28.5159 12.31V18.535C28.5159 18.935 28.3159 19.135 27.9159 19.135H27.7659C27.3659 19.135 27.1659 18.935 27.1659 18.535V17.02C27.1659 16.62 27.1209 16.42 27.0309 16.42C26.9809 16.42 26.9159 16.46 26.8359 16.54C26.6059 16.77 26.3309 16.885 26.0109 16.885H25.2309C24.8309 16.885 24.4909 16.745 24.2109 16.465ZM30.8126 18.82L30.3176 18.325C30.1176 18.125 30.0176 17.88 30.0176 17.59V15.85C30.0176 15.57 30.1226 15.325 30.3326 15.115L30.8126 14.635C31.0126 14.435 31.2576 14.335 31.5476 14.335H32.9726C33.3726 14.335 33.5726 14.135 33.5726 13.735V13.69C33.5726 13.29 33.3726 13.09 32.9726 13.09H30.6626C30.2626 13.09 30.0626 12.89 30.0626 12.49V12.325C30.0626 11.925 30.2626 11.725 30.6626 11.725H33.4076C33.6976 11.725 33.9426 11.825 34.1426 12.025L34.6376 12.52C34.8376 12.72 34.9376 12.965 34.9376 13.255V18.52C34.9376 18.92 34.7376 19.12 34.3376 19.12H31.5476C31.2576 19.12 31.0126 19.02 30.8126 18.82ZM31.3826 17.29C31.3826 17.69 31.5826 17.89 31.9826 17.89H32.9726C33.3726 17.89 33.5726 17.69 33.5726 17.29V16.165C33.5726 15.765 33.3726 15.565 32.9726 15.565H31.9826C31.5826 15.565 31.3826 15.765 31.3826 16.165V17.29ZM36.3697 18.535V18.385C36.3697 17.985 36.5347 17.785 36.8647 17.785C37.1847 17.785 37.3447 17.585 37.3447 17.185V12.325C37.3447 11.925 37.5447 11.725 37.9447 11.725H41.5447C41.9447 11.725 42.1447 11.925 42.1447 12.325V18.52C42.1447 18.92 41.9447 19.12 41.5447 19.12H41.3947C40.9947 19.12 40.7947 18.92 40.7947 18.52V13.69C40.7947 13.29 40.5947 13.09 40.1947 13.09H39.2947C38.8947 13.09 38.6947 13.29 38.6947 13.69V17.455C38.6947 17.845 38.5547 18.18 38.2747 18.46L38.0197 18.715C37.7397 18.995 37.3947 19.135 36.9847 19.135H36.9697C36.5697 19.135 36.3697 18.935 36.3697 18.535ZM44.4356 18.835L43.9406 18.34C43.7406 18.14 43.6406 17.895 43.6406 17.605V13.255C43.6406 12.965 43.7406 12.72 43.9406 12.52L44.4356 12.025C44.6356 11.825 44.8806 11.725 45.1706 11.725H47.0306C47.3206 11.725 47.5656 11.825 47.7656 12.025L48.2456 12.505C48.4456 12.725 48.5456 12.975 48.5456 13.255V17.605C48.5656 17.885 48.4656 18.135 48.2456 18.355L47.7656 18.835C47.5656 19.035 47.3206 19.135 47.0306 19.135H45.1706C44.8806 19.135 44.6356 19.035 44.4356 18.835ZM45.0056 17.17C45.0056 17.57 45.2056 17.77 45.6056 17.77H46.5806C46.9806 17.77 47.1806 17.57 47.1806 17.17V13.69C47.1806 13.29 46.9806 13.09 46.5806 13.09H45.6056C45.2056 13.09 45.0056 13.29 45.0056 13.69V17.17Z" fill="white"/>
<path d="M257.35 19.135C256.95 19.135 256.75 18.935 256.75 18.535V8.965C256.75 8.565 256.95 8.365 257.35 8.365H261.16C261.44 8.365 261.685 8.47 261.895 8.68L262.375 9.16C262.575 9.36 262.675 9.605 262.675 9.895V12.685C262.675 12.965 262.575 13.215 262.375 13.435C262.255 13.555 262.195 13.68 262.195 13.81C262.195 13.93 262.245 14.04 262.345 14.14L262.375 14.17C262.575 14.37 262.675 14.62 262.675 14.92V17.605C262.695 17.885 262.595 18.135 262.375 18.355L261.895 18.835C261.695 19.035 261.45 19.135 261.16 19.135H257.35ZM258.115 12.52C258.115 12.92 258.315 13.12 258.715 13.12H260.71C261.12 13.12 261.325 12.92 261.325 12.52V10.33C261.325 9.93 261.125 9.73 260.725 9.73H258.715C258.315 9.73 258.115 9.93 258.115 10.33V12.52ZM258.115 17.17C258.115 17.57 258.315 17.77 258.715 17.77H260.725C261.125 17.77 261.325 17.57 261.325 17.17V15.085C261.325 14.685 261.125 14.485 260.725 14.485H258.715C258.315 14.485 258.115 14.685 258.115 15.085V17.17ZM267.397 19.135C266.997 19.135 266.797 18.935 266.797 18.535V12.325C266.797 11.925 266.997 11.725 267.397 11.725H267.547C267.947 11.725 268.147 11.925 268.147 12.325V13.975C268.147 14.205 268.187 14.32 268.267 14.32C268.337 14.32 268.422 14.245 268.522 14.095L269.752 12.22C269.982 11.89 270.292 11.725 270.682 11.725H271.042C271.282 11.725 271.402 11.805 271.402 11.965C271.402 12.025 271.372 12.11 271.312 12.22L269.587 14.845C269.487 15.005 269.437 15.18 269.437 15.37C269.437 15.54 269.482 15.7 269.572 15.85L271.327 18.625C271.387 18.715 271.417 18.8 271.417 18.88C271.417 19.05 271.292 19.135 271.042 19.135H270.637C270.247 19.135 269.942 18.965 269.722 18.625L268.492 16.615C268.402 16.465 268.322 16.39 268.252 16.39C268.182 16.39 268.147 16.5 268.147 16.72V18.535C268.147 18.935 267.947 19.135 267.547 19.135H267.397ZM271.327 20.365L271.312 20.335H271.327V20.365ZM273.19 18.835L272.695 18.34C272.495 18.14 272.395 17.895 272.395 17.605V13.255C272.395 12.965 272.495 12.72 272.695 12.52L273.19 12.025C273.39 11.825 273.635 11.725 273.925 11.725H275.785C276.075 11.725 276.32 11.825 276.52 12.025L277 12.505C277.2 12.725 277.3 12.975 277.3 13.255V17.605C277.32 17.885 277.22 18.135 277 18.355L276.52 18.835C276.32 19.035 276.075 19.135 275.785 19.135H273.925C273.635 19.135 273.39 19.035 273.19 18.835ZM273.76 17.17C273.76 17.57 273.96 17.77 274.36 17.77H275.335C275.735 17.77 275.935 17.57 275.935 17.17V13.69C275.935 13.29 275.735 13.09 275.335 13.09H274.36C273.96 13.09 273.76 13.29 273.76 13.69V17.17ZM278.796 18.52V12.325C278.796 11.925 278.996 11.725 279.396 11.725H279.546C279.946 11.725 280.146 11.925 280.146 12.325V14.125C280.146 14.525 280.346 14.725 280.746 14.725H281.736C282.136 14.725 282.336 14.525 282.336 14.125V12.325C282.336 11.925 282.536 11.725 282.936 11.725H283.086C283.486 11.725 283.686 11.925 283.686 12.325V18.52C283.686 18.92 283.486 19.12 283.086 19.12H282.936C282.536 19.12 282.336 18.92 282.336 18.52V16.69C282.336 16.29 282.136 16.09 281.736 16.09H280.746C280.346 16.09 280.146 16.29 280.146 16.69V18.52C280.146 18.92 279.946 19.12 279.546 19.12H279.396C278.996 19.12 278.796 18.92 278.796 18.52ZM285.963 18.805L285.483 18.325C285.283 18.125 285.183 17.88 285.183 17.59V13.24C285.183 12.95 285.283 12.705 285.483 12.505L285.963 12.025C286.163 11.825 286.408 11.725 286.698 11.725H288.543C288.833 11.725 289.078 11.825 289.278 12.025L289.758 12.505C289.958 12.705 290.058 12.95 290.058 13.24V15.745C290.058 16.145 289.858 16.345 289.458 16.345H287.148C286.748 16.345 286.548 16.545 286.548 16.945V17.155C286.548 17.555 286.748 17.755 287.148 17.755H289.458C289.858 17.755 290.058 17.955 290.058 18.355V18.52C290.058 18.92 289.858 19.12 289.458 19.12H286.698C286.418 19.12 286.173 19.015 285.963 18.805ZM286.548 14.545C286.548 14.945 286.748 15.145 287.148 15.145H288.093C288.493 15.145 288.693 14.945 288.693 14.545V13.675C288.693 13.275 288.493 13.075 288.093 13.075H287.148C286.748 13.075 286.548 13.275 286.548 13.675V14.545ZM292.155 19.12C291.755 19.12 291.555 18.92 291.555 18.52V12.325C291.555 11.925 291.755 11.725 292.155 11.725H292.305C292.705 11.725 292.905 11.925 292.905 12.325V17.155C292.905 17.555 293.105 17.755 293.505 17.755H294.405C294.805 17.755 295.005 17.555 295.005 17.155V12.325C295.005 11.925 295.205 11.725 295.605 11.725H295.755C296.155 11.725 296.355 11.925 296.355 12.325V17.155C296.355 17.555 296.555 17.755 296.955 17.755H297.09C297.49 17.755 297.69 17.955 297.69 18.355V20.305C297.69 20.705 297.49 20.905 297.09 20.905H296.955C296.555 20.905 296.355 20.705 296.355 20.305V19.72C296.355 19.32 296.155 19.12 295.755 19.12H292.155Z" fill="white"/>
</svg>
